<svg id="b21fa9f4-7310-4337-b7ad-e07683326332" data-name="Layer 1" xmlns="http://www.w3.org/2000/svg" xmlns:xlink="http://www.w3.org/1999/xlink" viewBox="0 0 70.87 70.87"><defs><style>.a537617c-2a8a-4a37-8a33-db5a93ea1463{fill:none;}.e31d6245-2028-4df4-a9ea-31e23ac8dab9{fill:url(#bd5fbe24-94d9-494e-baf8-e1ec193e2c82);}.adb381bb-5f27-48d1-958f-048eaa29ae6f{fill-rule:evenodd;}</style><radialGradient id="bd5fbe24-94d9-494e-baf8-e1ec193e2c82" cx="16.08" cy="53.73" r="0.76" gradientTransform="matrix(57.88, 0, 0, -57.88, -910.11, 3133.97)" gradientUnits="userSpaceOnUse"><stop offset="0" stop-color="#fff"/><stop offset="0.3" stop-color="#f3f516"/><stop offset="0.59" stop-color="#fcce00"/><stop offset="1" stop-color="#ff9e67"/></radialGradient></defs><title>face_unpressed2</title><g id="bbe5e67b-881b-4c2b-8fa1-dcb873d47271" data-name="Layer_1"><g id="bfdbff91-2ae9-4f3b-8549-37db32683d76" data-name=" 280271384"><circle id="bea54c69-2bbe-4efb-b2a4-19ccf3ee0ea6" data-name=" 281587728" class="a537617c-2a8a-4a37-8a33-db5a93ea1463" cx="35.43" cy="35.43" r="33.41"/><circle id="b7b35378-1562-46fe-950f-21100317a503" data-name=" 281587656" class="e31d6245-2028-4df4-a9ea-31e23ac8dab9" cx="35.65" cy="34.79" r="32.33"/><path id="bd8530dd-28dd-4380-8cd3-2cc912bbb143" data-name=" 281587584" d="M35.43,0h0A35.41,35.41,0,0,1,70.86,35.43h0A35.41,35.41,0,0,1,35.44,70.86h0A35.41,35.41,0,0,1,0,35.44H0A35.41,35.41,0,0,1,35.43,0Zm0,4.05h0A31.41,31.41,0,0,0,4,35.43H4A31.41,31.41,0,0,0,35.43,66.82h0A31.41,31.41,0,0,0,66.82,35.44h0A31.41,31.41,0,0,0,35.43,4.05Z"/><path id="bdb54db3-991d-419a-8b3b-ec9e7df93d26" data-name=" 281587512" class="adb381bb-5f27-48d1-958f-048eaa29ae6f" d="M49.06,43.75a4.07,4.07,0,0,1,1.09,2.65c0,3.84-6.46,7-14.42,7s-14.41-3.12-14.41-7a4.11,4.11,0,0,1,1.08-2.65c2.16,2.53,7.32,4.31,13.33,4.31s11.17-1.78,13.33-4.31Z"/><circle id="a5a96ca8-3765-480e-b269-d713226b03ea" data-name=" 281587440" cx="24.35" cy="27.57" r="5.99"/><circle id="b10ea677-6245-4683-a5c9-370584036fc0" data-name=" 281587368" cx="45.46" cy="27.57" r="5.99"/></g></g></svg>