<svg id="e3a7660c-06d9-4aad-8cfe-92c7c8d7d344" data-name="Layer 1" xmlns="http://www.w3.org/2000/svg" xmlns:xlink="http://www.w3.org/1999/xlink" viewBox="0 0 70.87 70.87"><defs><style>.af159fa2-e44c-4624-b667-4c01de686683{fill:none;}.afcb1081-4b5d-48d0-834e-4cfb0fa9c7ab{fill:url(#bcde3e92-c09a-454b-82ca-2e501e42e064);}.a232213b-9a00-4621-ac16-4b5da8773d51{fill-rule:evenodd;}</style><radialGradient id="bcde3e92-c09a-454b-82ca-2e501e42e064" cx="16.12" cy="53.69" r="1.06" gradientTransform="matrix(41.38, 0, 0, -41.38, -646.13, 2245.5)" gradientUnits="userSpaceOnUse"><stop offset="0" stop-color="#fff"/><stop offset="0.3" stop-color="#f3f516"/><stop offset="0.59" stop-color="#fcce00"/><stop offset="1" stop-color="#ff9e67"/></radialGradient></defs><title>face lose</title><g id="a3086a71-f9d2-4afe-ad7e-37d357a03824" data-name="Layer_1"><g id="afda47e1-a6d0-4bee-8ff6-34d260d076e4" data-name=" 280013496"><circle id="f71c4f95-2328-496c-b598-12ab4cc05c0f" data-name=" 281586192" class="af159fa2-e44c-4624-b667-4c01de686683" cx="35.43" cy="35.43" r="33.41"/><circle id="bd71f62a-a406-4780-876f-14c6953ab7dd" data-name=" 281586120" class="afcb1081-4b5d-48d0-834e-4cfb0fa9c7ab" cx="35.65" cy="34.79" r="32.33"/><path id="af0d9f3f-f704-48d2-940f-aaffd904805e" data-name=" 281586048" d="M35.43,0h0A35.41,35.41,0,0,1,70.86,35.43h0A35.41,35.41,0,0,1,35.44,70.86h0A35.41,35.41,0,0,1,0,35.44H0A35.41,35.41,0,0,1,35.43,0Zm0,4.05h0A31.41,31.41,0,0,0,4,35.43H4A31.41,31.41,0,0,0,35.43,66.82h0A31.41,31.41,0,0,0,66.82,35.44h0A31.41,31.41,0,0,0,35.43,4.05Z"/><path id="fb83168c-5824-4b3a-a770-1164bbe68025" data-name=" 281585976" class="a232213b-9a00-4621-ac16-4b5da8773d51" d="M51.86,52.38a8.81,8.81,0,0,0,1.26-4.48c0-6.6-7.79-12-17.4-12s-17.4,5.36-17.4,12a8.72,8.72,0,0,0,1.16,4.3C20.81,46,27.55,41.33,35.65,41.33s15,4.79,16.21,11.05Z"/><path id="e97c27ed-5ceb-40a4-a4a9-21dee3c62d26" data-name=" 281585904" class="a232213b-9a00-4621-ac16-4b5da8773d51" d="M27.88,15l1.95,1.95c.09.1.05.29-.09.44L25.11,22l4.61,4.61c.15.16.2.37.09.48L27.89,29c-.1.1-.31.06-.47-.1L22.81,24.3l-4.63,4.63c-.15.15-.34.19-.44.09l-1.95-1.95c-.09-.09,0-.29.09-.43L20.51,22,15.9,17.39c-.15-.16-.2-.37-.09-.47L17.73,15c.1-.1.31-.06.47.09l4.61,4.62,4.64-4.64C27.59,14.93,27.78,14.89,27.88,15Z"/><path id="b48efcf9-ca70-4288-b00d-65be591c442d" data-name=" 281585832" class="a232213b-9a00-4621-ac16-4b5da8773d51" d="M52.89,15l2,1.95c.09.1,0,.29-.09.44L50.12,22l4.61,4.61c.15.16.2.37.09.48L52.9,29c-.1.1-.31.06-.47-.1L47.82,24.3l-4.64,4.63c-.14.15-.33.19-.43.09l-2-1.95c-.09-.09-.06-.29.09-.43L45.52,22l-4.61-4.61c-.15-.16-.2-.37-.09-.47L42.74,15c.1-.1.31-.06.47.09l4.61,4.62,4.63-4.64C52.6,14.93,52.79,14.89,52.89,15Z"/></g></g></svg>