<svg id="a6771c6b-8e8b-4af2-93a3-4e4a6ab02c32" data-name="Layer 1" xmlns="http://www.w3.org/2000/svg" xmlns:xlink="http://www.w3.org/1999/xlink" viewBox="0 0 70.87 70.87"><defs><style>.bafca5b4-4113-416a-999c-aa4e660ae674,.f6e4a672-4e70-45f1-bfe1-cdaca305e634{stroke:#000;stroke-width:0px;}.f6e4a672-4e70-45f1-bfe1-cdaca305e634{fill-rule:evenodd;}.b0ebf89a-965e-42b4-ab89-03311f74bf10{fill:url(#a2225dbd-c81f-4573-8391-b8d33c2cb0fc);}.aadccc1f-2e88-4139-b9cc-78da8da3bf53{fill:#fff;}.edc3a45d-fda4-422b-a7dd-21a9b6bc5920{fill:red;}</style><radialGradient id="a2225dbd-c81f-4573-8391-b8d33c2cb0fc" cx="16.28" cy="53.58" r="0.24" gradientTransform="matrix(52.16, 0, 0, -52.16, -818.55, 2825.8)" gradientUnits="userSpaceOnUse"><stop offset="0" stop-color="#fff"/><stop offset="0.13" stop-color="#e5e5e1"/><stop offset="0.29" stop-color="#ccc8c8"/><stop offset="0.44" stop-color="#b2b4b4"/><stop offset="0.75" stop-color="#464d43"/><stop offset="1"/></radialGradient></defs><title>mine_wrong</title><g id="bc8cccfa-45a5-4673-87c3-c341f0e4d5ee" data-name="Layer_1"><polygon class="f6e4a672-4e70-45f1-bfe1-cdaca305e634" points="0.52 37.68 0 35.46 0.52 33.21 33.29 33.21 33.29 0.43 35.51 0 37.77 0.43 37.77 33.21 70.54 33.21 70.87 35.45 70.54 37.68 37.77 37.68 37.77 70.46 35.64 70.84 33.29 70.46 33.29 37.68 0.52 37.68"/><circle class="bafca5b4-4113-416a-999c-aa4e660ae674" cx="17.91" cy="17.59" r="3.55"/><polygon class="f6e4a672-4e70-45f1-bfe1-cdaca305e634" points="14 59.92 12.08 58.83 11.05 56.98 32.59 35.45 11.05 13.91 12.29 12.06 14 10.97 35.53 32.5 57.06 10.97 58.92 12.08 60 13.91 38.47 35.45 60 56.98 58.99 58.89 57.06 59.92 35.53 38.39 14 59.92"/><circle class="bafca5b4-4113-416a-999c-aa4e660ae674" cx="35.71" cy="10.55" r="3.55"/><circle class="b0ebf89a-965e-42b4-ab89-03311f74bf10" cx="35.53" cy="35.04" r="24.43"/><circle class="bafca5b4-4113-416a-999c-aa4e660ae674" cx="52.46" cy="18.54" r="3.55"/><circle class="bafca5b4-4113-416a-999c-aa4e660ae674" cx="18.48" cy="52.37" r="3.55"/><circle class="bafca5b4-4113-416a-999c-aa4e660ae674" cx="52.46" cy="52.37" r="3.55"/><circle class="aadccc1f-2e88-4139-b9cc-78da8da3bf53" cx="31.23" cy="31.93" r="3.29"/><g id="b7bb31e0-3478-4335-beba-fb6ee1d9e250" data-name=" 176684160"><rect id="a22ee56c-eba5-4d39-b31f-9d31f9cfe4a7" data-name=" 176684256" class="edc3a45d-fda4-422b-a7dd-21a9b6bc5920" x="31.72" y="-7.01" width="7.57" height="85.13" rx="1.89" transform="translate(-14.74 35.52) rotate(-45)"/><rect id="aed45e50-24c1-45c0-bc01-7b2f299e3cba" data-name=" 176684184" class="edc3a45d-fda4-422b-a7dd-21a9b6bc5920" x="-7.06" y="31.77" width="85.13" height="7.57" rx="1.89" transform="translate(-14.74 35.52) rotate(-45)"/></g></g></svg>