<svg id="e43f084f-72d0-4691-b7b2-2f2d9292efc9" data-name="Layer 1" xmlns="http://www.w3.org/2000/svg" xmlns:xlink="http://www.w3.org/1999/xlink" viewBox="0 0 70.87 70.87"><defs><style>.e1973ae0-1959-4e7d-9a05-186396c7aaab,.eaf31244-4165-4a7b-aa46-4fb0f3e6be4d{stroke:#000;stroke-width:0px;}.e1973ae0-1959-4e7d-9a05-186396c7aaab{fill-rule:evenodd;}.a0bce706-f870-465a-abf2-d2881d72358f{fill:url(#a405e84a-ca31-453b-b790-b3ea0a7f6e0c);}.f1890cfb-1668-4c89-84cf-399ea995bc99{fill:#fff;}</style><radialGradient id="a405e84a-ca31-453b-b790-b3ea0a7f6e0c" cx="16.25" cy="53.61" r="0.21" gradientTransform="matrix(59.4, 0, 0, -59.4, -934.35, 3215.56)" gradientUnits="userSpaceOnUse"><stop offset="0" stop-color="#fff"/><stop offset="0.13" stop-color="#e5e5e1"/><stop offset="0.29" stop-color="#ccc8c8"/><stop offset="0.44" stop-color="#b2b4b4"/><stop offset="0.75" stop-color="#464d43"/><stop offset="1"/></radialGradient></defs><title>mine</title><g id="a63b5608-fa35-4c04-9dd9-61ab55f03f81" data-name="Layer_1"><polygon class="e1973ae0-1959-4e7d-9a05-186396c7aaab" points="0.45 37.7 -0.07 35.47 0.45 33.22 33.23 33.22 33.23 0.43 35.45 0 37.71 0.43 37.71 33.22 70.49 33.22 70.82 35.47 70.49 37.7 37.71 37.7 37.71 70.48 35.58 70.87 33.23 70.48 33.23 37.7 0.45 37.7"/><circle class="eaf31244-4165-4a7b-aa46-4fb0f3e6be4d" cx="17.84" cy="17.6" r="3.55"/><polygon class="e1973ae0-1959-4e7d-9a05-186396c7aaab" points="13.93 59.94 12.01 58.84 10.99 56.99 32.52 35.46 10.99 13.92 12.22 12.06 13.93 10.98 35.47 32.51 57.01 10.98 58.87 12.08 59.95 13.92 38.41 35.46 59.95 56.99 58.94 58.91 57.01 59.94 35.47 38.4 13.93 59.94"/><circle class="eaf31244-4165-4a7b-aa46-4fb0f3e6be4d" cx="35.65" cy="10.55" r="3.55"/><circle class="a0bce706-f870-465a-abf2-d2881d72358f" cx="35.47" cy="35.05" r="24.43"/><circle class="eaf31244-4165-4a7b-aa46-4fb0f3e6be4d" cx="52.4" cy="18.55" r="3.55"/><circle class="eaf31244-4165-4a7b-aa46-4fb0f3e6be4d" cx="18.41" cy="52.38" r="3.55"/><circle class="eaf31244-4165-4a7b-aa46-4fb0f3e6be4d" cx="52.4" cy="52.38" r="3.55"/><circle class="f1890cfb-1668-4c89-84cf-399ea995bc99" cx="31.17" cy="31.94" r="3.29"/></g></svg>